<mxfile host="app.diagrams.net" modified="2020-10-01T14:14:30.908Z" agent="5.0 (Windows NT 10.0; Win64; x64) AppleWebKit/537.36 (KHTML, like Gecko) Chrome/85.0.4183.121 Safari/537.36" etag="FcCBRMI21vw2EeYtDFrA" version="13.6.9" type="github">
  <diagram id="C5RBs43oDa-KdzZeNtuy" name="Page-1">
    <mxGraphModel dx="1583" dy="436" grid="0" gridSize="10" guides="1" tooltips="1" connect="1" arrows="1" fold="1" page="0" pageScale="1" pageWidth="827" pageHeight="1169" math="0" shadow="0">
      <root>
        <mxCell id="WIyWlLk6GJQsqaUBKTNV-0" />
        <mxCell id="WIyWlLk6GJQsqaUBKTNV-1" parent="WIyWlLk6GJQsqaUBKTNV-0" />
        <mxCell id="vVJwzzqc6dryWq7iI77K-81" value="" style="rounded=1;whiteSpace=wrap;html=1;shadow=0;glass=0;sketch=0;strokeColor=#CCCCCC;fillColor=none;gradientColor=none;arcSize=22;" parent="WIyWlLk6GJQsqaUBKTNV-1" vertex="1">
          <mxGeometry x="18" y="175" width="1002" height="408" as="geometry" />
        </mxCell>
        <mxCell id="vVJwzzqc6dryWq7iI77K-16" value="" style="group" parent="WIyWlLk6GJQsqaUBKTNV-1" vertex="1" connectable="0">
          <mxGeometry x="90" y="220" width="88" height="91" as="geometry" />
        </mxCell>
        <mxCell id="vVJwzzqc6dryWq7iI77K-10" value="" style="strokeWidth=2;html=1;shape=mxgraph.flowchart.document2;whiteSpace=wrap;size=0.25;shadow=0;sketch=0;gradientColor=none;fillColor=#FFFFFF;rotation=-180;" parent="vVJwzzqc6dryWq7iI77K-16" vertex="1">
          <mxGeometry width="80" height="90" as="geometry" />
        </mxCell>
        <mxCell id="vVJwzzqc6dryWq7iI77K-11" value="" style="strokeWidth=2;html=1;shape=mxgraph.flowchart.document2;whiteSpace=wrap;size=0.25;shadow=0;sketch=0;gradientColor=none;fillColor=#FFFFFF;rotation=-180;" parent="vVJwzzqc6dryWq7iI77K-16" vertex="1">
          <mxGeometry x="8" y="1" width="80" height="90" as="geometry" />
        </mxCell>
        <mxCell id="vVJwzzqc6dryWq7iI77K-23" value="&lt;font style=&quot;font-size: 15px&quot;&gt;Change Set&lt;/font&gt;" style="text;html=1;strokeColor=none;fillColor=none;align=center;verticalAlign=middle;whiteSpace=wrap;rounded=0;shadow=0;sketch=0;" parent="vVJwzzqc6dryWq7iI77K-16" vertex="1">
          <mxGeometry x="17" y="55" width="62" height="20" as="geometry" />
        </mxCell>
        <mxCell id="vVJwzzqc6dryWq7iI77K-28" value="" style="group" parent="WIyWlLk6GJQsqaUBKTNV-1" vertex="1" connectable="0">
          <mxGeometry x="334" y="215.5" width="110" height="100" as="geometry" />
        </mxCell>
        <mxCell id="vVJwzzqc6dryWq7iI77K-24" value="" style="rounded=1;whiteSpace=wrap;html=1;shadow=0;sketch=0;strokeColor=#000000;fillColor=#FFFFFF;gradientColor=none;" parent="vVJwzzqc6dryWq7iI77K-28" vertex="1">
          <mxGeometry width="110" height="100" as="geometry" />
        </mxCell>
        <mxCell id="vVJwzzqc6dryWq7iI77K-25" value="" style="endArrow=none;html=1;entryX=1;entryY=0.25;entryDx=0;entryDy=0;exitX=0;exitY=0.25;exitDx=0;exitDy=0;" parent="vVJwzzqc6dryWq7iI77K-28" source="vVJwzzqc6dryWq7iI77K-24" target="vVJwzzqc6dryWq7iI77K-24" edge="1">
          <mxGeometry width="50" height="50" relative="1" as="geometry">
            <mxPoint y="50" as="sourcePoint" />
            <mxPoint x="50" as="targetPoint" />
          </mxGeometry>
        </mxCell>
        <mxCell id="vVJwzzqc6dryWq7iI77K-26" value="" style="rounded=0;whiteSpace=wrap;html=1;shadow=0;sketch=0;strokeColor=#000000;gradientColor=none;fillColor=#FFB366;" parent="vVJwzzqc6dryWq7iI77K-28" vertex="1">
          <mxGeometry x="70" y="60" width="40" height="40" as="geometry" />
        </mxCell>
        <mxCell id="vVJwzzqc6dryWq7iI77K-27" value="&lt;font style=&quot;font-size: 12px&quot;&gt;Staging Spark Data Frame&amp;nbsp;&lt;/font&gt;" style="text;html=1;strokeColor=none;fillColor=none;align=center;verticalAlign=middle;whiteSpace=wrap;rounded=0;shadow=0;sketch=0;" parent="vVJwzzqc6dryWq7iI77K-28" vertex="1">
          <mxGeometry x="7" y="2" width="95" height="20" as="geometry" />
        </mxCell>
        <mxCell id="vVJwzzqc6dryWq7iI77K-29" value="" style="group" parent="WIyWlLk6GJQsqaUBKTNV-1" vertex="1" connectable="0">
          <mxGeometry x="671" y="215.5" width="119" height="148.86" as="geometry" />
        </mxCell>
        <mxCell id="vVJwzzqc6dryWq7iI77K-17" value="" style="rounded=1;whiteSpace=wrap;html=1;shadow=0;sketch=0;strokeColor=#000000;fillColor=#FFFFFF;gradientColor=none;" parent="vVJwzzqc6dryWq7iI77K-29" vertex="1">
          <mxGeometry x="-8" width="110" height="100" as="geometry" />
        </mxCell>
        <mxCell id="vVJwzzqc6dryWq7iI77K-18" value="" style="endArrow=none;html=1;entryX=1;entryY=0.25;entryDx=0;entryDy=0;exitX=0;exitY=0.25;exitDx=0;exitDy=0;" parent="vVJwzzqc6dryWq7iI77K-29" source="vVJwzzqc6dryWq7iI77K-17" target="vVJwzzqc6dryWq7iI77K-17" edge="1">
          <mxGeometry width="50" height="50" relative="1" as="geometry">
            <mxPoint x="-8" y="50" as="sourcePoint" />
            <mxPoint x="42" as="targetPoint" />
          </mxGeometry>
        </mxCell>
        <mxCell id="vVJwzzqc6dryWq7iI77K-19" value="" style="rounded=0;whiteSpace=wrap;html=1;shadow=0;sketch=0;strokeColor=#000000;gradientColor=none;fillColor=#00FF80;" parent="vVJwzzqc6dryWq7iI77K-29" vertex="1">
          <mxGeometry x="62" y="60" width="40" height="40" as="geometry" />
        </mxCell>
        <mxCell id="vVJwzzqc6dryWq7iI77K-21" value="&lt;font style=&quot;font-size: 12px&quot;&gt;Final Delta Table&lt;/font&gt;" style="text;html=1;strokeColor=none;fillColor=none;align=center;verticalAlign=middle;whiteSpace=wrap;rounded=0;shadow=0;sketch=0;" parent="vVJwzzqc6dryWq7iI77K-29" vertex="1">
          <mxGeometry x="-1" y="2" width="95" height="20" as="geometry" />
        </mxCell>
        <mxCell id="vVJwzzqc6dryWq7iI77K-41" value="" style="shape=image;verticalLabelPosition=bottom;labelBackgroundColor=#ffffff;verticalAlign=top;aspect=fixed;imageAspect=0;image=data:image/png,iVBORw0KGgoAAAANSUhEUgAAAPkAAADLCAMAAACbI8UEAAAArlBMVEX///8ArdQ2NjYAq9MArdMyMjLc3Nz//v/V1dU0MjNEQ0M3NTb4+PgwMDApKSk1NTWWlpa/v7+rq6uoqKiNjY16enplZWXk5OQ+PD1RUVEAqdPGxsa1tbX5/v5LS0uioqPx+/3v7++BgYElJSXo+Ptubm7d9PnOzs7q6upiyeM1u9uX2+yv5PDD7fV91Olbx+Gf4O696fMsuNqH1+pdXV3S8vdGwt5nx+McHBxoaGj8lbkSAAAQkklEQVR4nO1di2KquhIVA7WKQG1rVVot1kcVEREf5+7//7GbFxggQehD0LL22ftYgTArM5nMTAKt1SpUqFChQoUKFSpUqFChQoU/jQb8U7OcnetZ9Oe/BGspmUDeTIuW48KASt4BIEkScP+Ywmu1gy9h6vKhaEkuCqjmpSlhgOWwaGkuCEh8KwPKXHaKFueimB4pcUjdtv7SUF+FxCH13R+y97nPMvf/hpNDhj10AQipy3/Jya1lRuUI29pfiOMatSF0bzJj7RI4/pFIzjMlWWZVDsCqaJkugrktRXnDn/x50VJdAm5skCOY7h9wcgc5SRzqfVu0XL+OYRCwx5R+vHmlO/EZLdD6rYfvlg8knrnL4Nad3IqvcTSzuUXL9qs4+BJX5dDFAemmw/elUOU3XqPYAhFzFM8Ar2j5fgM4H7E2QuKYvG0VLOXvoNGo7VKJw0l9V7SQvwGo9KkvmMsJoLnf6Mw2dLnRW8TeN0UL+fOAKl/7Z4wdUV8XLegvYJiB+G3WKByTG8LEB/vt1SjmfgbeiPrNOTlePYJH3Lyt8L1RO0jZmN9cjUJQj+BSv60ahZOZtyyZ3g3V3i07K3NUfbdvyMntMts6Jn87Tm6eJYhhLf5mahTCeoQA5tIqWuSfwVpQjwCC72XpJvZRNGrTI3+UA3m34g4DmK7aVx++oy1/gnIrQMUnh3cMABncQo0CuTcuv42FIhyu0sEN7KNo1FA9gru2gFPxAy+RwYXYoiX/NtbcRRU4lOnqKSeTQYvr1x++D4/cUQ7CktvUFriBa69RcF2YhINzCo9L/OprFHO+RgE4WsEpoiL8lRdid9BP80a5xIQqa4lzCjKL6w3fG7WDaLE8soQmKNdcs5Pjz9YkJWFScH6JDoYzm6vdEesIqq1gFWXk8cJbGL1f7RLjlD+jJaNyS3Ciea3hu2ABEYDoZk92t3tM61dao+AGpnivZ6zE2EAOgT/7kfD9yga70L3Fk5EGJDbnTX6o+r5BvXRlzLf8CjvgTNPoSSZuL8Emrq9GAeNx/lYg34qdiTWa2RuWHx43J4d/BTOVYwqor67M2nnRiQzdmInqEVxs+Hn81dUouPsjYKZurkUqXAu2yoHr2gYtcG+pE/SOq/RodlNq4Ed0NoA/S6VlnpYvmNRPGW35wXVvaEZLDcQdrqHAHkQ1iuvwcsIZzU4dstZR4N+vZolx+NWEm/u4g4RWmy4j+Ldx4KycIE7nt/TyAl5UiZXX12DtjaFwNSk9HGvQRVcOeyCMAkoFhz8tn085IfWVaKH9GmoUAvcmZyqgDwXVd9O/gvB9xy2l4kd0zoxVdNiReZM6/LL8S4xzYTyS6XK0LTjZcSBYhisx4Iwmc31UVsnngkK1uSm5exc9jmbusgrOrd6hVclyh++iKirI7qH4S4ylf1QbB+y8taIcs9KW0wQOhDKbzWWBhRJt/xLXI3iAdsPzkuVdYmykbP/K5Zj55Wo4tZX0gTb0vAbf1PMuGKCMh/+o9tmQoCAIVsKh7S6nVh6Rpz63OCOfyXKLg2j3A+TuH3dODte8EjVUzvB9mra7FQDgH71DxhUTZD3cgAg5ufIZfPqGZkjEBP7Sy6b5tWj9uYw1inOPo6H9gEjz7jzLYBUtMZYxfBdEbyedU9lNf5lBetGjTvkig4tgm3knNxzCGbh7/Fy3bDUKtKFZJClXc7J7zlVZoh2CiRXJgrHjF9C4GpfwHsiVld6icJMNep1cefz7PIU2tzYlA7BJN3nxzoMyObm0B6xBwD1GRAbyKtXL4/SH021mturOZbCVzwxyQN4eEmMPNqnZl+gVBWZ5dggKNjRjzeKEk7zUFkhMcRL3FbDFlou9JndhskQ1Co9fNQQIsuz7NvyDIKMvAr3jGgaQvRSLdwSpX2kKsWw9gg5pSBBSProrZ7s+zKcYh8PW2S1tn9SVAd5CgR7jEVMfCpK/0tQo3EikiVj7m523nlu8k4fTtefaKIhHeSc6PeXhtIMvWLVwh2WY1w5IfXgIyzgwX67WUwsfacTEC34eWgdv6ZNBDP8uxcNW5ORKsQ0a1yOIBwP2f5D16VAjGnI0Ih/mjutTzyeOxfmFWBmvxBeudRxryZIp+UsnkoaJJQtUP1/ZyOPLKe/KEuy+KEWNAi1/Atl211biUJR73PYRhtuNDLM3scMabvg1OakEm8XQPoGlM03s4sUPKEZ2NHONwNouj6JBiy7YcmszyMn9jPjfwXRLu5+n06GFMQw6Jn7O+cHqct/GAn1qScL3pEqtg+Pt3OUGw4Uz+1pon6n0RasXpdxHYUG/ffRlEwIQ4I+yvVmtWSfIG/lJePzleFSjKNy9E5w8Np6rE7kZidxtOAPka1e0DVpC26DLw33u2VDBAn9MQlYTHFeZqpABRFtJy/JAG+r9g+vL0ZQsARl7J9/NMSmlPR1RAp030NxM358g04GYQt+Uj46VtW3eBjt8i3K8dGftpr7xLyE1kDfbrBW1nSl4NARHAsXqfe5KZq6Xxkgy9PvHbbblJuso6D3o5Aq29zV6SVCOsjMRHPqDs9VnAu5iJUg+7XhpWC5J1nLyRiCV97MQOTlJLtTJzfO+KSfaA7aXweRFb1krcImxUdv6IJdvSwgPuZ8vKYoe9Sxws5iDXqGRd4jHqEPu52xeuK5c1Mw2XIGgtPxloLgWjndOgh+iIWQuFfV7PXj7OuKxKwj/ETJHJ8gbQVBLf22PiPnlH/CBAg3PLSTKhHO20QAVf1xtp1b0HjWU+3kp78Iu5J1qO+6rMQhbWpREL4HK+NpPlM7AVHa5cg6hxxtO185u46d0byE+bsd7IxQghNHaim/bdrC0ktUH4s7y/eNxiXA8kqvFl8tSASsuXnDviNymLNsb1wsWVw6HNVlakQSPZLEXk7ZkGQQFjeAVcmnT5uWZRx+sw4UHtKDkrafDpKMaTrfuUWbX1H4I4PIF6GjqiAsOLjNAObDWK/u85nNCvvDTDg38XqSABCqZb7yDdf466+DanErVd3DpZ/Mt8tJebOOmvCS7GxFS4290cOodf5L4xWtSO4CfHURj+7jKOaEOt8vk/okvgMyfF1Y5LQqiLY0o6MydKK5dwSNOeclf+tet4pefQdHt1Zc7fP4j3C/+e2Zd/LzFJs/G7STmO9uEY+YbaR4w7Qv/7kkHDe/l1vrOTbGzW9lf03uY41x618gRevOf2bQAHT3g73pL1TX510/fT/cb8JbbH7un5R1lAPLZPMkAN4eiC87fAF5StJxN3moWtJMf7Px84v5ca3h1ZpmHe7BIcb0aZ3HY4aiW//RKSBnZuQn8HYrURZswrg9T5yjTdEawSYKGjF6uhdjrAFQ89XZyXNnkrVP+Mm+kfA0gv3tu6yLy0WQOQAuHhm4vPbSt8kZMnANr7uz+Q0UoiRZmJN8/urstfzPprWE4nR+2jrPa7TzHORzm1u2N7Oy4XSPnoxH7/82D7qCMfVOhQoUKFSpUOI/23f0Jd4vIofskxujAgpzc5rYRIDja7t1B9No1EcjFPdHhxV2v14sKVhtHbwHv0EMnpcmcxGddCVEfvTx3TiJ2+koc+jtqvauhz637sI3kiYrySg8+jxAGbyJm4wFqTdsv+Id7e3R5axbpmWddUQyl3iE/vQ3wLUZ92ERHS8r8yG+5o6n1EIqmTwaPAfcnrR6H/oyYvyjos/EatqEkTqxrlOr9RDEgtJGg52u9voHuPBAo/WGiYvGf2S+7uqrWVY1Q6tQ1eIOm0kSnPOpJmR9EzGMnNrVnKuRTU8ScXHNiboiZP1BR9I6QuZrCfLEnQigtdrhA5vW62sTMFyPU72pd7465zFUxczV6IhTyZfxt5ipl3htQe9D+CZSezvwpEG/CDheG+XiGuKqqNsDtf4M5akX/aOdjLrb2p+CQ0f/8AvP2vknF02ZMzzHMH4iQzRZpnsNcS2du6AiagZVe154Y5k39hP898Ji/avigouKmFPzDBFt3exR2itb9AvOOXg8VwwyXE/NAfI0excxVKgOV+T2NudF6f3x8fJj1SZcZrXHInByieLrjMR+/4WNEP8qAnI9V9DoJ+96o8+05jXn7I1AhNGem50LmdwMNd7cWOEDCPJCBQOA7CXOtSxxIb0Z0NHkMmesfCXnizCnetXBABF3SZfynYLylMb9vhR4E6jGcRQPmb+1/GrHRj8D/EeZJmc8yry0IKw05yvzM1Rjz+xYz4BT+lJ3G/IGdeCanngt0/k5MQhuELZNx/hXmcMxi6x/1AubK6PEtwGs7nXlc5x90FBLNKdyQIoX5oqXQgUJ6LjwFM6+rAxwKQAlPzjOw9rjMGZi3R2i0qupn6OEU4r90TdP792eZqwzzRd9Ao9DoEwm1fzwhUpi/TajXwQ7EIH73xLyu4GZD7xYyP8msQ5nvMjKvzTQyhjizGp2Z0pirLPOnCfqirrx94OFoaPEr0pmPyX2U/WeLWN8gKMxR5kQohfUfiVnNqN8nGhYw/8CaU56+zxxJjogPFq91QxUNPzFzGiBBz0gcpaEHd2SZK102RPouc/VHmL+hk1Qk+RgbUp1JcjIwb1O+xl3ttU/6IJCSZX4aA99lPiMmxlq7QVwU1Fsu5qQlQ4MD7Y24Ol44JWR+T73D7NQJQc9FrH3EykGYq6oaTIfZmQdRF+PhaFswOxrd5WB+rxHJX9rtNqEHvXByYhMyf9YDnbZrj8TXBQELyxw2yvgwqnPoElWKUVYP19FJR55mtUHnNQDpvmzMG1RytfXR7XbpzMTJlUXMg1zH2H90P17o59aCZa6Rb7X9Sa2EubaPy3yeeW9PI5n212K4E/MwSzM0CBLSQwNIZGwi5mGuo8DLg8+TR5b5jCSoME8LL84fw81IjPJJiJOckDBPZhoB83jGHWV+qmugcRLaZmJiEzBv7zkJYNBzhLny9omGImxe/xdcnZu50Xp+eHj42PeJuEokY0GHAtyfmBsvzPevcebj0WlmUEPiKuNKI8yNepdp7Q7JxSl3wPM6IXOUsbz1m9TgxwxzOPSfo62JmUORcJRG70aSa+rhDI3J+Nj8nEkFJ/8aMeadiUpZU2C9w//Hxx11fuxdJu/Qm5+mJ3x1oPRZhDm0LOpAuguGeVTm9PxcZRRTT1QmVOrb1UhlgqGlzGI6h1kaJdRUFPif0iTXJCsklDnbnvZe++zTYD2AFoTw9xHm7WeFGhMZr6f5POzxzHU4KOwsWo1iupytQLLQAuZB3P7ZJxf1Hzokceh0yezYjA9olnnQ2nvtmZrVPkw96GyLm2dqMu3nCdHN5Lld+1YF0tCMUwUyIZOIeajzIFfDkkPthYlzbbEnNZt4xtbrJwa09tRrGSQAODnENyKNgXoODQWVtjSeUQbKR07mejMEtCldmYU3e9KaESiGMaHWbkDzZaHN0DjXYQvklDtUBYY/TZhR/aQb6LvQGQXM69GmYBP60/sEfVD0/ckfjv/p6EQFEelODKNp0KrzYqY3cRP/e4chjx4XzRAx/2wxGLw8fDIrDaNWHH280vDRT3yP+vvtdMorPYOdERcv5LtR1NzH++Rd3p7p9WzBtXO61QM5TKfVHm24BfP0TkI02BqfeQ0v/hD0xsJDAXC/jJPfoyvbzCk95nPIkd4lJsCCc5c279ReeKt29GibkS7Z2J2oNFGhQoUKFSpUqFChQrnxfyA/ggZHox1AAAAAAElFTkSuQmCC;imageBorder=#000000;" parent="vVJwzzqc6dryWq7iI77K-29" vertex="1">
          <mxGeometry x="-7" y="61.05" width="49" height="39.95" as="geometry" />
        </mxCell>
        <mxCell id="vVJwzzqc6dryWq7iI77K-33" value="" style="edgeStyle=none;rounded=0;orthogonalLoop=1;jettySize=auto;html=1;exitX=1;exitY=0.5;exitDx=0;exitDy=0;entryX=0;entryY=0.5;entryDx=0;entryDy=0;sketch=1;strokeColor=#808080;dashed=1;" parent="WIyWlLk6GJQsqaUBKTNV-1" source="vVJwzzqc6dryWq7iI77K-24" target="vVJwzzqc6dryWq7iI77K-17" edge="1">
          <mxGeometry x="0.2511" y="-9" relative="1" as="geometry">
            <mxPoint y="1" as="offset" />
          </mxGeometry>
        </mxCell>
        <mxCell id="vVJwzzqc6dryWq7iI77K-39" style="edgeStyle=orthogonalEdgeStyle;rounded=0;sketch=1;orthogonalLoop=1;jettySize=auto;html=1;exitX=0.5;exitY=0;exitDx=0;exitDy=0;entryX=0.5;entryY=1;entryDx=0;entryDy=0;strokeColor=#808080;" parent="WIyWlLk6GJQsqaUBKTNV-1" source="vVJwzzqc6dryWq7iI77K-36" target="vVJwzzqc6dryWq7iI77K-24" edge="1">
          <mxGeometry relative="1" as="geometry" />
        </mxCell>
        <mxCell id="vVJwzzqc6dryWq7iI77K-40" value="Staging Updates" style="edgeLabel;html=1;align=center;verticalAlign=middle;resizable=0;points=[];" parent="vVJwzzqc6dryWq7iI77K-39" vertex="1" connectable="0">
          <mxGeometry x="-0.2086" y="-13" relative="1" as="geometry">
            <mxPoint x="13" y="12" as="offset" />
          </mxGeometry>
        </mxCell>
        <mxCell id="vVJwzzqc6dryWq7iI77K-72" style="edgeStyle=orthogonalEdgeStyle;rounded=0;sketch=0;orthogonalLoop=1;jettySize=auto;html=1;exitX=1;exitY=0.5;exitDx=0;exitDy=0;entryX=0;entryY=0.5;entryDx=0;entryDy=0;strokeColor=#808080;" parent="WIyWlLk6GJQsqaUBKTNV-1" source="vVJwzzqc6dryWq7iI77K-36" target="vVJwzzqc6dryWq7iI77K-71" edge="1">
          <mxGeometry relative="1" as="geometry" />
        </mxCell>
        <mxCell id="vVJwzzqc6dryWq7iI77K-36" value="&lt;h1&gt;&lt;span&gt;Calculate Updates&lt;/span&gt;&lt;/h1&gt;&lt;h1 style=&quot;font-size: 18px&quot;&gt;&lt;ul&gt;&lt;li&gt;&lt;span style=&quot;font-weight: normal&quot;&gt;Join change Set With final Delta Tables with PK.&lt;/span&gt;&lt;/li&gt;&lt;li&gt;&lt;span style=&quot;font-weight: normal&quot;&gt;Not Matched --&amp;gt; New Records for insert .&lt;/span&gt;&lt;/li&gt;&lt;li&gt;&lt;span style=&quot;font-weight: normal&quot;&gt;Matched --&amp;gt; with last updated Timestamp &amp;gt; current available timestamp --&amp;gt; Updates&amp;nbsp;&lt;/span&gt;&lt;/li&gt;&lt;li&gt;&lt;span style=&quot;font-weight: normal&quot;&gt;Discard remaining (Matched but No Changes)&lt;/span&gt;&lt;/li&gt;&lt;/ul&gt;&lt;/h1&gt;" style="text;html=1;fillColor=none;spacing=5;spacingTop=-20;whiteSpace=wrap;overflow=hidden;rounded=0;shadow=0;sketch=0;glass=0;strokeColor=#CCCCCC;" parent="WIyWlLk6GJQsqaUBKTNV-1" vertex="1">
          <mxGeometry x="213" y="406" width="460" height="160" as="geometry" />
        </mxCell>
        <mxCell id="vVJwzzqc6dryWq7iI77K-37" style="edgeStyle=orthogonalEdgeStyle;rounded=0;sketch=1;orthogonalLoop=1;jettySize=auto;html=1;exitX=0.5;exitY=0;exitDx=0;exitDy=0;exitPerimeter=0;entryX=0.25;entryY=0;entryDx=0;entryDy=0;strokeColor=#808080;dashed=1;" parent="WIyWlLk6GJQsqaUBKTNV-1" source="vVJwzzqc6dryWq7iI77K-11" target="vVJwzzqc6dryWq7iI77K-36" edge="1">
          <mxGeometry relative="1" as="geometry" />
        </mxCell>
        <mxCell id="vVJwzzqc6dryWq7iI77K-38" style="edgeStyle=orthogonalEdgeStyle;rounded=0;sketch=1;orthogonalLoop=1;jettySize=auto;html=1;exitX=0;exitY=0.5;exitDx=0;exitDy=0;entryX=0.75;entryY=0;entryDx=0;entryDy=0;strokeColor=#808080;dashed=1;" parent="WIyWlLk6GJQsqaUBKTNV-1" source="vVJwzzqc6dryWq7iI77K-41" target="vVJwzzqc6dryWq7iI77K-36" edge="1">
          <mxGeometry relative="1" as="geometry" />
        </mxCell>
        <mxCell id="vVJwzzqc6dryWq7iI77K-51" style="edgeStyle=orthogonalEdgeStyle;rounded=0;sketch=1;orthogonalLoop=1;jettySize=auto;html=1;exitX=1;exitY=0.5;exitDx=0;exitDy=0;entryX=1;entryY=0.5;entryDx=0;entryDy=0;entryPerimeter=0;strokeColor=#808080;" parent="WIyWlLk6GJQsqaUBKTNV-1" source="vVJwzzqc6dryWq7iI77K-49" target="vVJwzzqc6dryWq7iI77K-10" edge="1">
          <mxGeometry relative="1" as="geometry" />
        </mxCell>
        <mxCell id="vVJwzzqc6dryWq7iI77K-49" value="NGFT" style="text;html=1;strokeColor=none;fillColor=none;align=center;verticalAlign=middle;whiteSpace=wrap;rounded=0;shadow=0;glass=0;sketch=0;" parent="WIyWlLk6GJQsqaUBKTNV-1" vertex="1">
          <mxGeometry x="-44" y="255" width="40" height="20" as="geometry" />
        </mxCell>
        <mxCell id="vVJwzzqc6dryWq7iI77K-52" value="MinIo bucket" style="text;html=1;align=center;verticalAlign=middle;resizable=0;points=[];autosize=1;" parent="WIyWlLk6GJQsqaUBKTNV-1" vertex="1">
          <mxGeometry x="106" y="190" width="78" height="18" as="geometry" />
        </mxCell>
        <mxCell id="vVJwzzqc6dryWq7iI77K-59" value="" style="outlineConnect=0;fontColor=#232F3E;gradientColor=none;strokeColor=#232F3E;fillColor=#ffffff;dashed=0;verticalLabelPosition=bottom;verticalAlign=top;align=center;html=1;fontSize=12;fontStyle=0;aspect=fixed;shape=mxgraph.aws4.resourceIcon;resIcon=mxgraph.aws4.oracle_db_instance_alternate;rounded=0;shadow=0;glass=0;sketch=0;" parent="WIyWlLk6GJQsqaUBKTNV-1" vertex="1">
          <mxGeometry x="1054" y="224" width="83" height="83" as="geometry" />
        </mxCell>
        <mxCell id="vVJwzzqc6dryWq7iI77K-62" value="NIFI" style="text;html=1;strokeColor=none;fillColor=none;align=center;verticalAlign=middle;whiteSpace=wrap;rounded=0;shadow=0;glass=0;sketch=0;" parent="WIyWlLk6GJQsqaUBKTNV-1" vertex="1">
          <mxGeometry x="1073" y="305" width="40" height="20" as="geometry" />
        </mxCell>
        <mxCell id="vVJwzzqc6dryWq7iI77K-63" value="&lt;font style=&quot;font-size: 14px&quot;&gt;Truncate/Load&lt;/font&gt;" style="text;html=1;align=center;verticalAlign=middle;resizable=0;points=[];autosize=1;" parent="WIyWlLk6GJQsqaUBKTNV-1" vertex="1">
          <mxGeometry x="1054" y="328" width="100" height="19" as="geometry" />
        </mxCell>
        <mxCell id="vVJwzzqc6dryWq7iI77K-70" style="edgeStyle=orthogonalEdgeStyle;rounded=0;sketch=0;orthogonalLoop=1;jettySize=auto;html=1;exitX=1;exitY=0.5;exitDx=0;exitDy=0;entryX=0;entryY=0.5;entryDx=0;entryDy=0;strokeColor=#808080;" parent="WIyWlLk6GJQsqaUBKTNV-1" source="vVJwzzqc6dryWq7iI77K-68" target="vVJwzzqc6dryWq7iI77K-36" edge="1">
          <mxGeometry relative="1" as="geometry" />
        </mxCell>
        <mxCell id="vVJwzzqc6dryWq7iI77K-68" value="&lt;font style=&quot;font-size: 18px&quot;&gt;Parse Files&lt;/font&gt;" style="rounded=1;whiteSpace=wrap;html=1;shadow=0;glass=0;sketch=0;strokeColor=#CCCCCC;fillColor=none;gradientColor=none;" parent="WIyWlLk6GJQsqaUBKTNV-1" vertex="1">
          <mxGeometry x="40" y="440.5" width="120" height="91" as="geometry" />
        </mxCell>
        <mxCell id="vVJwzzqc6dryWq7iI77K-69" style="edgeStyle=orthogonalEdgeStyle;rounded=0;sketch=1;orthogonalLoop=1;jettySize=auto;html=1;exitX=0.75;exitY=0;exitDx=0;exitDy=0;exitPerimeter=0;entryX=0.5;entryY=0;entryDx=0;entryDy=0;dashed=1;strokeColor=#808080;" parent="WIyWlLk6GJQsqaUBKTNV-1" source="vVJwzzqc6dryWq7iI77K-11" target="vVJwzzqc6dryWq7iI77K-68" edge="1">
          <mxGeometry relative="1" as="geometry" />
        </mxCell>
        <mxCell id="vVJwzzqc6dryWq7iI77K-77" style="edgeStyle=none;rounded=0;sketch=0;orthogonalLoop=1;jettySize=auto;html=1;exitX=1;exitY=0.5;exitDx=0;exitDy=0;entryX=0;entryY=0.5;entryDx=0;entryDy=0;strokeColor=#808080;" parent="WIyWlLk6GJQsqaUBKTNV-1" source="vVJwzzqc6dryWq7iI77K-71" target="vVJwzzqc6dryWq7iI77K-74" edge="1">
          <mxGeometry relative="1" as="geometry" />
        </mxCell>
        <mxCell id="vVJwzzqc6dryWq7iI77K-79" style="edgeStyle=orthogonalEdgeStyle;rounded=0;sketch=0;orthogonalLoop=1;jettySize=auto;html=1;exitX=0.5;exitY=0;exitDx=0;exitDy=0;entryX=1;entryY=1;entryDx=0;entryDy=0;strokeColor=#808080;" parent="WIyWlLk6GJQsqaUBKTNV-1" source="vVJwzzqc6dryWq7iI77K-71" edge="1">
          <mxGeometry relative="1" as="geometry">
            <mxPoint x="791" y="440.5" as="sourcePoint" />
            <mxPoint x="720" y="316.4999999999999" as="targetPoint" />
            <Array as="points">
              <mxPoint x="791" y="441" />
              <mxPoint x="791" y="399" />
              <mxPoint x="720" y="399" />
            </Array>
          </mxGeometry>
        </mxCell>
        <mxCell id="vVJwzzqc6dryWq7iI77K-71" value="&lt;font style=&quot;font-size: 18px&quot;&gt;Merge To Final Table&lt;/font&gt;" style="rounded=1;whiteSpace=wrap;html=1;shadow=0;glass=0;sketch=0;strokeColor=#CCCCCC;fillColor=none;gradientColor=none;" parent="WIyWlLk6GJQsqaUBKTNV-1" vertex="1">
          <mxGeometry x="724" y="440.5" width="120" height="91" as="geometry" />
        </mxCell>
        <mxCell id="rSwaFO0K_5t0Jbge9nqv-6" style="edgeStyle=orthogonalEdgeStyle;rounded=0;sketch=0;orthogonalLoop=1;jettySize=auto;html=1;exitX=0.5;exitY=0;exitDx=0;exitDy=0;entryX=0.5;entryY=0;entryDx=0;entryDy=0;entryPerimeter=0;strokeColor=#808080;" edge="1" parent="WIyWlLk6GJQsqaUBKTNV-1" source="vVJwzzqc6dryWq7iI77K-74" target="rSwaFO0K_5t0Jbge9nqv-3">
          <mxGeometry relative="1" as="geometry" />
        </mxCell>
        <mxCell id="vVJwzzqc6dryWq7iI77K-74" value="&lt;font style=&quot;font-size: 18px&quot;&gt;Store as Avro&lt;/font&gt;" style="rounded=1;whiteSpace=wrap;html=1;shadow=0;glass=0;sketch=0;strokeColor=#CCCCCC;fillColor=none;gradientColor=none;" parent="WIyWlLk6GJQsqaUBKTNV-1" vertex="1">
          <mxGeometry x="877.5" y="440.5" width="120" height="91" as="geometry" />
        </mxCell>
        <mxCell id="rSwaFO0K_5t0Jbge9nqv-1" value="" style="group" vertex="1" connectable="0" parent="WIyWlLk6GJQsqaUBKTNV-1">
          <mxGeometry x="859" y="220" width="88" height="91" as="geometry" />
        </mxCell>
        <mxCell id="rSwaFO0K_5t0Jbge9nqv-2" value="" style="strokeWidth=2;html=1;shape=mxgraph.flowchart.document2;whiteSpace=wrap;size=0.25;shadow=0;sketch=0;gradientColor=none;fillColor=#FFFFFF;rotation=-180;" vertex="1" parent="rSwaFO0K_5t0Jbge9nqv-1">
          <mxGeometry width="80" height="90" as="geometry" />
        </mxCell>
        <mxCell id="rSwaFO0K_5t0Jbge9nqv-3" value="" style="strokeWidth=2;html=1;shape=mxgraph.flowchart.document2;whiteSpace=wrap;size=0.25;shadow=0;sketch=0;gradientColor=none;fillColor=#FFFFFF;rotation=-180;" vertex="1" parent="rSwaFO0K_5t0Jbge9nqv-1">
          <mxGeometry x="8" y="1" width="80" height="90" as="geometry" />
        </mxCell>
        <mxCell id="rSwaFO0K_5t0Jbge9nqv-4" value="&lt;font style=&quot;font-size: 15px&quot;&gt;Avro Files&lt;/font&gt;" style="text;html=1;strokeColor=none;fillColor=none;align=center;verticalAlign=middle;whiteSpace=wrap;rounded=0;shadow=0;sketch=0;" vertex="1" parent="rSwaFO0K_5t0Jbge9nqv-1">
          <mxGeometry x="17" y="55" width="62" height="20" as="geometry" />
        </mxCell>
        <mxCell id="rSwaFO0K_5t0Jbge9nqv-5" style="rounded=0;sketch=0;orthogonalLoop=1;jettySize=auto;html=1;exitX=1;exitY=0.5;exitDx=0;exitDy=0;entryX=1;entryY=0.5;entryDx=0;entryDy=0;entryPerimeter=0;strokeColor=#808080;" edge="1" parent="WIyWlLk6GJQsqaUBKTNV-1" source="vVJwzzqc6dryWq7iI77K-17" target="rSwaFO0K_5t0Jbge9nqv-2">
          <mxGeometry relative="1" as="geometry" />
        </mxCell>
        <mxCell id="rSwaFO0K_5t0Jbge9nqv-7" style="rounded=0;sketch=0;orthogonalLoop=1;jettySize=auto;html=1;exitX=0;exitY=0.5;exitDx=0;exitDy=0;exitPerimeter=0;entryX=0.138;entryY=0.503;entryDx=0;entryDy=0;entryPerimeter=0;strokeColor=#808080;" edge="1" parent="WIyWlLk6GJQsqaUBKTNV-1" source="rSwaFO0K_5t0Jbge9nqv-3" target="vVJwzzqc6dryWq7iI77K-59">
          <mxGeometry relative="1" as="geometry" />
        </mxCell>
      </root>
    </mxGraphModel>
  </diagram>
</mxfile>
